<svg width="384" height="99" viewBox="0 0 384 99" fill="none" xmlns="http://www.w3.org/2000/svg">
<path d="M381.926 33.0803C381.99 32.9523 382.15 32.9523 382.406 33.0803C382.662 33.1443 382.79 33.2403 382.79 33.3683V77.7203C382.79 83.8643 381.094 88.7603 377.702 92.4083C374.374 96.1203 369.702 97.9763 363.686 97.9763C359.846 97.9763 356.71 97.2723 354.278 95.8643C351.846 94.5203 350.63 92.8243 350.63 90.7763C350.63 89.6883 350.918 88.8883 351.494 88.3763C352.07 87.8643 352.742 87.6083 353.51 87.6083C354.406 87.6083 355.142 87.8323 355.718 88.2803C356.294 88.7923 356.998 89.5923 357.83 90.6803C359.046 92.3443 360.294 93.6243 361.574 94.5203C362.854 95.4803 364.774 95.9603 367.334 95.9603C370.406 95.9603 372.87 94.8403 374.726 92.6003C376.582 90.3603 377.51 86.1683 377.51 80.0243V63.8963C375.142 66.3283 372.742 68.2803 370.31 69.7523C367.878 71.2243 365.222 71.9603 362.342 71.9603C358.438 71.9603 355.142 70.5203 352.454 67.6403C349.83 64.7603 348.518 60.7283 348.518 55.5443C348.518 50.9363 349.606 46.9043 351.782 43.4483C353.958 39.9923 356.678 37.3363 359.942 35.4803C363.27 33.6243 366.598 32.6963 369.926 32.6963C373.51 32.6963 376.614 33.6563 379.238 35.5763C380.39 34.9363 381.286 34.1043 381.926 33.0803ZM365.606 68.7923C367.718 68.7923 369.734 68.2163 371.654 67.0643C373.638 65.8483 375.59 64.2803 377.51 62.3603V42.7763C377.51 40.4083 376.486 38.4563 374.438 36.9203C372.39 35.3843 370.086 34.6163 367.526 34.6163C363.75 34.6163 360.678 36.3123 358.31 39.7043C356.006 43.0323 354.854 47.3843 354.854 52.7603C354.854 57.5603 355.814 61.4323 357.734 64.3763C359.718 67.3203 362.342 68.7923 365.606 68.7923Z" stroke="#F2F3F4"/>
<path d="M342.987 69.8483C343.179 69.8483 343.275 70.0403 343.275 70.4243C343.275 70.8083 343.179 71.0003 342.987 71.0003C341.515 71.0003 340.363 70.9683 339.531 70.9043L334.347 70.8083L329.067 70.9043C328.235 70.9683 327.083 71.0003 325.611 71.0003C325.419 71.0003 325.323 70.8083 325.323 70.4243C325.323 70.0403 325.419 69.8483 325.611 69.8483C327.339 69.8483 328.619 69.6883 329.451 69.3683C330.283 68.9843 330.827 68.3443 331.083 67.4483C331.403 66.5523 331.563 65.1443 331.563 63.2243V47.6723C331.563 43.8963 330.827 41.1123 329.355 39.3203C327.947 37.5283 325.739 36.6323 322.731 36.6323C320.747 36.6323 318.731 37.1763 316.683 38.2643C314.699 39.2883 312.875 40.7283 311.211 42.5843V63.2243C311.211 65.1443 311.339 66.5523 311.595 67.4483C311.915 68.3443 312.491 68.9843 313.323 69.3683C314.155 69.6883 315.435 69.8483 317.163 69.8483C317.355 69.8483 317.451 70.0403 317.451 70.4243C317.451 70.8083 317.355 71.0003 317.163 71.0003C315.691 71.0003 314.539 70.9683 313.707 70.9043L308.523 70.8083L303.243 70.9043C302.411 70.9683 301.259 71.0003 299.787 71.0003C299.595 71.0003 299.499 70.8083 299.499 70.4243C299.499 70.0403 299.595 69.8483 299.787 69.8483C301.515 69.8483 302.795 69.6883 303.627 69.3683C304.459 68.9843 305.003 68.3443 305.259 67.4483C305.579 66.5523 305.739 65.1443 305.739 63.2243V44.2163C305.739 42.0403 305.483 40.4723 304.971 39.5123C304.459 38.5523 303.595 38.0723 302.379 38.0723C301.355 38.0723 299.627 38.5523 297.195 39.5123H297.003C296.747 39.5123 296.555 39.3843 296.427 39.1283C296.363 38.8083 296.459 38.5843 296.715 38.4563L307.851 33.1763C307.979 33.1123 308.171 33.0803 308.427 33.0803C309.003 33.0803 309.611 33.8163 310.251 35.2883C310.891 36.7603 311.211 38.6483 311.211 40.9523C313.643 38.1363 316.043 36.0563 318.411 34.7123C320.843 33.3683 323.339 32.6963 325.899 32.6963C329.483 32.6963 332.235 33.6883 334.155 35.6723C336.075 37.6563 337.035 40.5683 337.035 44.4083V63.2243C337.035 65.1443 337.163 66.5523 337.419 67.4483C337.739 68.3443 338.315 68.9843 339.147 69.3683C339.979 69.6883 341.259 69.8483 342.987 69.8483Z" stroke="#F2F3F4"/>
<path d="M294.877 65.5281C295.133 65.5281 295.293 65.6881 295.357 66.0081C295.485 66.2641 295.421 66.4561 295.165 66.5841L283.933 71.8641L283.549 71.9601C282.909 71.9601 282.301 71.2241 281.725 69.7521C281.149 68.2801 280.861 66.3601 280.861 63.9921V63.6081C278.365 66.4241 275.869 68.5041 273.373 69.8481C270.877 71.1281 268.285 71.7681 265.597 71.7681C262.397 71.7681 259.901 70.7761 258.109 68.7921C256.317 66.7441 255.421 63.8001 255.421 59.9601V45.2721C255.421 42.7761 255.197 40.9841 254.749 39.8961C254.301 38.7441 253.565 38.1681 252.541 38.1681C251.645 38.1681 250.557 38.4881 249.277 39.1281H249.181C248.925 39.1281 248.733 38.9681 248.605 38.6481C248.477 38.2641 248.541 38.0401 248.797 37.9761L259.453 33.1761L259.837 33.0801C260.029 33.0801 260.221 33.1761 260.413 33.3681C260.669 33.4961 260.797 33.6561 260.797 33.8481V56.7921C260.797 64.2161 263.485 67.9281 268.861 67.9281C270.909 67.9281 272.989 67.4161 275.101 66.3921C277.213 65.3041 279.133 63.8321 280.861 61.9761V45.2721C280.861 42.7121 280.637 40.8881 280.189 39.8001C279.805 38.7121 279.069 38.1681 277.981 38.1681C277.085 38.1681 275.997 38.4881 274.717 39.1281H274.621C274.365 39.1281 274.173 38.9681 274.045 38.6481C273.981 38.2641 274.077 38.0401 274.333 37.9761L284.989 33.1761L285.277 33.0801C285.469 33.0801 285.661 33.1761 285.853 33.3681C286.109 33.4961 286.237 33.6561 286.237 33.8481V60.7281C286.237 62.9041 286.493 64.4721 287.005 65.4321C287.517 66.3921 288.381 66.8721 289.597 66.8721C290.685 66.8721 292.381 66.4241 294.685 65.5281H294.877Z" stroke="#F2F3F4"/>
<path d="M227.214 71.0004C227.022 71.0004 226.926 70.8084 226.926 70.4244C226.926 70.0404 227.022 69.8484 227.214 69.8484C228.942 69.8484 230.222 69.6884 231.054 69.3684C231.886 68.9844 232.462 68.3444 232.782 67.4484C233.102 66.4884 233.262 65.0804 233.262 63.2244V13.5924C233.262 11.2884 233.038 9.62439 232.59 8.60039C232.142 7.57639 231.342 7.06439 230.19 7.06439C229.23 7.06439 227.758 7.51239 225.774 8.40839H225.582C225.39 8.40839 225.23 8.24839 225.102 7.92839C225.038 7.60839 225.102 7.41639 225.294 7.35239L237.582 1.49639C237.71 1.43239 237.87 1.40039 238.062 1.40039C238.19 1.40039 238.35 1.49639 238.542 1.68839C238.798 1.81639 238.926 1.97639 238.926 2.16839V63.2244C238.926 65.0804 239.054 66.4564 239.31 67.3524C239.63 68.2484 240.206 68.8884 241.038 69.2724C241.87 69.6564 243.15 69.8484 244.878 69.8484C245.07 69.8484 245.166 70.0404 245.166 70.4244C245.166 70.8084 245.07 71.0004 244.878 71.0004C243.47 71.0004 242.318 70.9684 241.422 70.9044L236.046 70.8084L230.862 70.9044C229.966 70.9684 228.75 71.0004 227.214 71.0004Z" stroke="#F2F3F4"/>
<path d="M198.292 66.0084C198.548 66.0084 198.74 66.1684 198.868 66.4884C198.996 66.7444 198.964 66.9364 198.772 67.0644C196.404 68.9204 194.26 70.2324 192.34 71.0004C190.484 71.7684 188.532 72.1524 186.484 72.1524C183.796 72.1524 181.588 71.5444 179.86 70.3284C178.132 69.1124 177.268 67.0964 177.268 64.2804V41.7204C177.268 40.0564 177.14 38.8724 176.884 38.1684C176.692 37.4644 176.276 37.0164 175.636 36.8244C174.996 36.5684 173.908 36.4404 172.372 36.4404C172.116 36.4404 171.988 36.2484 171.988 35.8644C171.988 35.4164 172.116 35.1924 172.372 35.1924C174.932 35.1284 177.012 34.4564 178.612 33.1764C180.212 31.8324 181.14 30.0724 181.396 27.8964C181.396 27.7044 181.652 27.6084 182.164 27.6084C182.612 27.6084 182.836 27.7044 182.836 27.8964V35.0004C186.036 34.9364 190.484 34.6164 196.18 34.0404C196.308 34.0404 196.436 34.2964 196.564 34.8084C196.756 35.2564 196.852 35.7684 196.852 36.3444C196.852 36.8564 196.724 37.4004 196.468 37.9764C196.276 38.4884 196.052 38.7124 195.796 38.6484C192.276 37.7524 187.956 37.2404 182.836 37.1124V61.0164C182.836 63.6404 183.476 65.5924 184.756 66.8724C186.1 68.1524 187.988 68.7924 190.42 68.7924C193.364 68.7924 195.924 67.8964 198.1 66.1044L198.292 66.0084Z" stroke="#F2F3F4"/>
<path d="M166.362 69.8483C166.554 69.8483 166.65 70.0403 166.65 70.4243C166.65 70.8083 166.554 71.0003 166.362 71.0003C164.89 71.0003 163.738 70.9683 162.906 70.9043L157.722 70.8083L152.442 70.9043C151.61 70.9683 150.458 71.0003 148.986 71.0003C148.794 71.0003 148.698 70.8083 148.698 70.4243C148.698 70.0403 148.794 69.8483 148.986 69.8483C150.714 69.8483 151.994 69.6883 152.826 69.3683C153.658 68.9843 154.202 68.3443 154.458 67.4483C154.778 66.5523 154.938 65.1443 154.938 63.2243V47.6723C154.938 43.8963 154.202 41.1123 152.73 39.3203C151.322 37.5283 149.114 36.6323 146.106 36.6323C144.122 36.6323 142.106 37.1763 140.058 38.2643C138.074 39.2883 136.25 40.7283 134.586 42.5843V63.2243C134.586 65.1443 134.714 66.5523 134.97 67.4483C135.29 68.3443 135.866 68.9843 136.698 69.3683C137.53 69.6883 138.81 69.8483 140.538 69.8483C140.73 69.8483 140.826 70.0403 140.826 70.4243C140.826 70.8083 140.73 71.0003 140.538 71.0003C139.066 71.0003 137.914 70.9683 137.082 70.9043L131.898 70.8083L126.618 70.9043C125.786 70.9683 124.634 71.0003 123.162 71.0003C122.97 71.0003 122.874 70.8083 122.874 70.4243C122.874 70.0403 122.97 69.8483 123.162 69.8483C124.89 69.8483 126.17 69.6883 127.002 69.3683C127.834 68.9843 128.378 68.3443 128.634 67.4483C128.954 66.5523 129.114 65.1443 129.114 63.2243V44.2163C129.114 42.0403 128.858 40.4723 128.346 39.5123C127.834 38.5523 126.97 38.0723 125.754 38.0723C124.73 38.0723 123.002 38.5523 120.57 39.5123H120.378C120.122 39.5123 119.93 39.3843 119.802 39.1283C119.738 38.8083 119.834 38.5843 120.09 38.4563L131.226 33.1763C131.354 33.1123 131.546 33.0803 131.802 33.0803C132.378 33.0803 132.986 33.8163 133.626 35.2883C134.266 36.7603 134.586 38.6483 134.586 40.9523C137.018 38.1363 139.418 36.0563 141.786 34.7123C144.218 33.3683 146.714 32.6963 149.274 32.6963C152.858 32.6963 155.61 33.6883 157.53 35.6723C159.45 37.6563 160.41 40.5683 160.41 44.4083V63.2243C160.41 65.1443 160.538 66.5523 160.794 67.4483C161.114 68.3443 161.69 68.9843 162.522 69.3683C163.354 69.6883 164.634 69.8483 166.362 69.8483Z" stroke="#F2F3F4"/>
<path d="M114.599 65.6241C114.791 65.6241 114.951 65.7521 115.079 66.0081C115.271 66.2001 115.303 66.3921 115.175 66.5841C110.823 70.2961 106.151 72.1521 101.159 72.1521C97.3833 72.1521 94.1193 71.2881 91.3673 69.5601C88.6153 67.8321 86.5353 65.5921 85.1273 62.8401C83.7833 60.0241 83.1113 56.9841 83.1113 53.7201C83.1113 49.8801 84.0073 46.3921 85.7993 43.2561C87.6553 40.1201 90.1513 37.6561 93.2873 35.8641C96.4233 34.0081 99.9113 33.0801 103.751 33.0801C107.207 33.0801 109.895 33.9441 111.815 35.6721C113.735 37.3361 114.695 39.6401 114.695 42.5841C114.695 43.3521 114.599 43.9281 114.407 44.3121C114.279 44.6321 113.991 44.7921 113.543 44.7921L89.9273 44.9841C89.6073 46.7121 89.4473 48.3761 89.4473 49.9761C89.4473 55.5441 90.7913 60.0881 93.4793 63.6081C96.1673 67.0641 99.8793 68.7921 104.615 68.7921C108.263 68.7921 111.559 67.7361 114.503 65.6241H114.599ZM100.487 35.0001C97.8633 35.0001 95.6553 35.7681 93.8633 37.3041C92.1353 38.7761 90.9193 40.8881 90.2153 43.6401L108.071 43.2561C108.071 40.6321 107.367 38.6161 105.959 37.2081C104.615 35.7361 102.791 35.0001 100.487 35.0001Z" stroke="#F2F3F4"/>
<path d="M58.7454 71.0004C58.5534 71.0004 58.4574 70.8084 58.4574 70.4244C58.4574 70.0404 58.5534 69.8484 58.7454 69.8484C60.4734 69.8484 61.7534 69.6884 62.5854 69.3684C63.4174 68.9844 63.9934 68.3444 64.3134 67.4484C64.6334 66.4884 64.7934 65.0804 64.7934 63.2244V13.5924C64.7934 11.2884 64.5694 9.62439 64.1214 8.60039C63.6734 7.57639 62.8734 7.06439 61.7214 7.06439C60.7614 7.06439 59.2894 7.51239 57.3054 8.40839H57.1134C56.9214 8.40839 56.7614 8.24839 56.6334 7.92839C56.5694 7.60839 56.6334 7.41639 56.8254 7.35239L69.1134 1.49639C69.2414 1.43239 69.4014 1.40039 69.5934 1.40039C69.7214 1.40039 69.8814 1.49639 70.0734 1.68839C70.3294 1.81639 70.4574 1.97639 70.4574 2.16839V63.2244C70.4574 65.0804 70.5854 66.4564 70.8414 67.3524C71.1614 68.2484 71.7374 68.8884 72.5694 69.2724C73.4014 69.6564 74.6814 69.8484 76.4094 69.8484C76.6014 69.8484 76.6974 70.0404 76.6974 70.4244C76.6974 70.8084 76.6014 71.0004 76.4094 71.0004C75.0014 71.0004 73.8494 70.9684 72.9534 70.9044L67.5774 70.8084L62.3934 70.9044C61.4974 70.9684 60.2814 71.0004 58.7454 71.0004Z" stroke="#F2F3F4"/>
<path d="M41.8072 21.8482C40.4632 21.8482 39.4072 21.4962 38.6392 20.7922C37.9352 20.0882 37.5832 19.0962 37.5832 17.8162C37.5832 16.5362 37.9352 15.5442 38.6392 14.8402C39.4072 14.1362 40.4632 13.7842 41.8072 13.7842C43.0872 13.7842 44.0792 14.1362 44.7832 14.8402C45.4872 15.5442 45.8392 16.5362 45.8392 17.8162C45.8392 19.0962 45.4872 20.0882 44.7832 20.7922C44.0792 21.4962 43.0872 21.8482 41.8072 21.8482ZM33.7432 71.0002C33.6152 71.0002 33.5512 70.8082 33.5512 70.4242C33.5512 70.0402 33.6152 69.8482 33.7432 69.8482C35.4712 69.8482 36.7512 69.6882 37.5832 69.3682C38.4792 68.9842 39.0872 68.3442 39.4072 67.4482C39.7272 66.4882 39.8872 65.0802 39.8872 63.2242V45.2722C39.8872 42.9682 39.6312 41.3042 39.1192 40.2802C38.6712 39.2562 37.8712 38.7442 36.7192 38.7442C35.5672 38.7442 34.1272 39.1922 32.3992 40.0882H32.3032C32.0472 40.0882 31.8552 39.9282 31.7272 39.6082C31.5992 39.2882 31.6312 39.0642 31.8232 38.9362L44.3032 33.1762L44.6872 33.0802C44.8152 33.0802 44.9752 33.1762 45.1672 33.3682C45.3592 33.4962 45.4552 33.6562 45.4552 33.8482C45.4552 34.2962 45.4232 35.5762 45.3592 37.6882C45.2952 39.8002 45.2632 42.2962 45.2632 45.1762V63.2242C45.2632 65.1442 45.4232 66.5522 45.7432 67.4482C46.0632 68.3442 46.6392 68.9842 47.4712 69.3682C48.3032 69.6882 49.5832 69.8482 51.3112 69.8482C51.5032 69.8482 51.5992 70.0402 51.5992 70.4242C51.5992 70.8082 51.5032 71.0002 51.3112 71.0002C49.8392 71.0002 48.6552 70.9682 47.7592 70.9042L42.5752 70.8082L37.3912 70.9042C36.4952 70.9682 35.2792 71.0002 33.7432 71.0002Z" stroke="#F2F3F4"/>
<path d="M5.81818 39.8C5.81818 42.04 6.55417 43.832 8.02617 45.176C9.49817 46.456 11.6742 47.832 14.5542 49.304C16.7942 50.456 18.5222 51.448 19.7382 52.28C21.0182 53.112 22.1062 54.2 23.0022 55.544C23.8982 56.888 24.3462 58.52 24.3462 60.44C24.3462 63.704 23.1302 66.456 20.6982 68.696C18.2662 70.936 14.9702 72.056 10.8102 72.056C7.41817 72.056 4.34618 71.096 1.59418 69.176C1.21018 68.92 1.01817 68.536 1.01817 68.024L0.826172 60.536C0.826172 60.344 0.986167 60.248 1.30617 60.248C1.69017 60.184 1.91416 60.248 1.97816 60.44C3.19416 63.64 4.76217 66.072 6.68217 67.736C8.66617 69.4 10.9382 70.232 13.4982 70.232C15.4822 70.232 17.0182 69.784 18.1062 68.888C19.2582 67.928 19.8342 66.52 19.8342 64.664C19.8342 62.872 19.4182 61.368 18.5862 60.152C17.8182 58.872 16.8582 57.88 15.7062 57.176C14.5542 56.408 12.9862 55.512 11.0022 54.488C8.89017 53.464 7.19417 52.536 5.91417 51.704C4.69817 50.872 3.64217 49.784 2.74617 48.44C1.91417 47.096 1.49817 45.432 1.49817 43.448C1.49817 39.992 2.77817 37.368 5.33817 35.576C7.96217 33.72 11.0342 32.792 14.5542 32.792C17.1142 32.792 19.4502 33.272 21.5622 34.232C21.9462 34.36 22.1702 34.52 22.2342 34.712C22.3622 34.84 22.4262 35.032 22.4262 35.288C22.4262 36.568 22.3942 37.56 22.3302 38.264L22.2342 42.296C22.2342 42.424 22.0422 42.488 21.6582 42.488C21.2742 42.488 21.0822 42.424 21.0822 42.296C21.0822 40.952 20.5702 39.704 19.5462 38.552C18.5222 37.336 17.2422 36.376 15.7062 35.672C14.1702 34.968 12.6342 34.616 11.0982 34.616C9.43418 34.616 8.12217 35.064 7.16217 35.96C6.26617 36.792 5.81818 38.072 5.81818 39.8Z" stroke="#F2F3F4"/>
</svg>
